# xmcd
#
# Track frame offsets:
# 150
# 14474
# 33153
# 48478
# 69481
# 81999
# 97475
# 110918
# 125560
# 142247
# 160315
# 173809
# 190394
# 212882
# 226473
# 241792
#
# Disc length: 3438 seconds
#
#
# Revision: 0
# Processed by: cddbd v1.5PL3 Copyright (c) Steve Scherf et al.
# Submitted via: FreeRIP 2.70 
#
DISCID=f10d6c10
DTITLE=Various Artist - Todays Country Greatest Hits V2
DYEAR=2004
DGENRE=Country
TTITLE0=Faith Hill-The Way You Love Me
TTITLE1=Jessica Andrews-Who I Am
TTITLE2=Montgomery Gentry-Lonely And Gone
TTITLE3=Shania Twain-That Don't Impress Me Much
TTITLE4=Toby Keith-Just Talking About You
TTITLE5=Trick Pony-Just What I Do
TTITLE6=Aaron Tippin-Kiss This
TTITLE7=Brooks and Dunn-He's Got You
TTITLE8=George Strait-Living and Living Well
TTITLE9=Kenney Chesney-I Lost You
TTITLE10=Martina McBride-I Love You
TTITLE11=Tommy Cochran-Angels In Waiting
TTITLE12=Tim McGraw-Please Remember Me
TTITLE13=Tracy Lawrence-Lessons Learned
TTITLE14=Andy Griggs-She's More
TTITLE15=Darl Worley-Miss My Friends
EXTD=
EXTT0=
EXTT1=
EXTT2=
EXTT3=
EXTT4=
EXTT5=
EXTT6=
EXTT7=
EXTT8=
EXTT9=
EXTT10=
EXTT11=
EXTT12=
EXTT13=
EXTT14=
EXTT15=
PLAYORDER=
